<svg xmlns="http://www.w3.org/2000/svg" viewBox="0 0 32 40" x="0px" y="0px" fill="#FFD700"><g data-name="Layer 2"><path d="M28.6,21a3.26,3.26,0,0,0-.15-3.23c-.93-1.86-4.22-5.25-4.95-6V2a.5.5,0,0,0-1,0v9.79c-.73.74-4,4.13-4.95,6A3.26,3.26,0,0,0,17.4,21a7.55,7.55,0,0,0-.9,3.49,6.27,6.27,0,0,0,6.5,6,6.27,6.27,0,0,0,6.5-6A7.55,7.55,0,0,0,28.6,21ZM18.5,21v-.5h9v1h-9Zm-.05-2.78c.78-1.56,3.56-4.49,4.55-5.51,1,1,3.77,3.95,4.55,5.51a3.48,3.48,0,0,1,.39,1.28H18.06A3.48,3.48,0,0,1,18.45,18.22ZM23,29.5a5.27,5.27,0,0,1-5.5-5,6.86,6.86,0,0,1,.34-2,.41.41,0,0,0,.16,0H28a.41.41,0,0,0,.16,0,6.86,6.86,0,0,1,.34,2A5.27,5.27,0,0,1,23,29.5ZM14.45,17.78c-.93-1.86-4.22-5.25-4.95-6V2a.5.5,0,0,0-1,0v9.79c-.73.74-4,4.13-4.95,6A3.26,3.26,0,0,0,3.4,21a7.55,7.55,0,0,0-.9,3.49,6.27,6.27,0,0,0,6.5,6,6.27,6.27,0,0,0,6.5-6A7.55,7.55,0,0,0,14.6,21,3.26,3.26,0,0,0,14.45,17.78ZM4.5,21v-.5h9v1h-9Zm0-2.78C5.23,16.66,8,13.73,9,12.71c1,1,3.77,3.95,4.55,5.51a3.48,3.48,0,0,1,.39,1.28H4.06A3.48,3.48,0,0,1,4.45,18.22ZM9,29.5a5.27,5.27,0,0,1-5.5-5,6.86,6.86,0,0,1,.34-2,.41.41,0,0,0,.16,0H14a.41.41,0,0,0,.16,0,6.86,6.86,0,0,1,.34,2A5.27,5.27,0,0,1,9,29.5Z"/></g><text x="0" y="47" fill="#FFD700" font-size="5px" font-weight="bold" font-family="'Helvetica Neue', Helvetica, Arial-Unicode, Arial, Sans-serif">Created by bastian vieri</text><text x="0" y="52" fill="#FFD700" font-size="5px" font-weight="bold" font-family="'Helvetica Neue', Helvetica, Arial-Unicode, Arial, Sans-serif">from the Noun Project</text></svg>